# xmcd
#
# Track frame offsets:
#	150
#	4408
#	25179
#	40538
#	50972
#	59583
#	64918
#	78164
#	95637
#	117783
#	122987
#	135299
#	147608
#	170273
#	186357
#	192334
#	205310
#	218042
#	230640
#	240164
#	248638
#	255341
#	262678
#	274803
#	290492
#	304406
#	317494
#
# Disc length: 4251 seconds
#
# Revision: 1
# Processed by: cddbd v1.5.2PL0 Copyright (c) Steve Scherf et al.
# Submitted via: audiograbber 1.83.01
#
DISCID=8a10991b
DTITLE=Allerton and Alton - Black, White and Bluegrass
DYEAR=2010
DGENRE=Old Timey Music
TTITLE0=Keep on the Sunny Side (Theme Song)
TTITLE1=Orange Blossom Special
TTITLE2=Kentucky
TTITLE3=I'll Get Along Somehow
TTITLE4=Twelfth Street Rag
TTITLE5=Keep on the Sunny Side (Theme Song)
TTITLE6=Memory Lane
TTITLE7=Don't This Road Look Rough and Rocky
TTITLE8=Drifting Too Far from the Shore
TTITLE9=Keep on the Sunny Side (Theme Song)
TTITLE10=Three Ways of Knowing
TTITLE11=I'll Sign My Heart Away
TTITLE12=Every Day Is Mother's Day to Me
TTITLE13=Standing Somewhere in the Shadows (radio show)
TTITLE14=Somehow Tonight (off-the-air)
TTITLE15=Branded Wherever I Go
TTITLE16=Raining on the Mountain
TTITLE17=Kentucky (studio practice)
TTITLE18=That Pretty Little Face (take 1) (studio practice, slow)
TTITLE19=That Pretty Little Face (take 2) (studio practice, fast)
TTITLE20=What Would the Profit Be (studio practice)
TTITLE21=Let Me Be Your Salty Dog (studio practice)
TTITLE22=Branded Wherever I Go (promotion disc)
TTITLE23=Can't Feel At Home in This World Anymore (1948)
TTITLE24=Cabin in Caroline (WW2A 1948)
TTITLE25=Rambler's Call (WW2A 1948)
TTITLE26=Keep on the Sunny Side (short version)
EXTD=
EXTT0=
EXTT1=
EXTT2=
EXTT3=
EXTT4=
EXTT5=
EXTT6=
EXTT7=
EXTT8=
EXTT9=
EXTT10=
EXTT11=
EXTT12=
EXTT13=
EXTT14=
EXTT15=
EXTT16=
EXTT17=
EXTT18=
EXTT19=
EXTT20=
EXTT21=
EXTT22=
EXTT23=
EXTT24=
EXTT25=
EXTT26=
PLAYORDER=
